<?xml version="1.0" encoding="UTF-8"?>
<svg width="184px" height="214px" viewBox="0 0 184 214" version="1.1" xmlns="http://www.w3.org/2000/svg" xmlns:xlink="http://www.w3.org/1999/xlink">
    <!-- Generator: Sketch 46.2 (44496) - http://www.bohemiancoding.com/sketch -->
    <title>dollar-symbol</title>
    <desc>Created with Sketch.</desc>
    <defs></defs>
    <g id="Page-1" stroke="none" stroke-width="1" fill="none" fill-rule="evenodd" opacity="0.100000001">
        <g id="dollar-symbol" fill-rule="nonzero">
            <path d="M146.518372,25.8143103 C119.5317,25.8143103 103.142945,10.511198 96.081557,1.94199015 C93.9477174,-0.64733005 90.0518657,-0.64733005 87.9180261,1.94199015 C80.8566386,10.511198 64.4683004,25.8143103 37.4812113,25.8143103 L7.35984994,25.8143103 C3.29475838,25.8143103 0,29.1183581 0,33.1939773 L0,81.1630671 C-0.000416846961,166.031328 68.1478085,206.620333 91.9997916,214 C115.851775,206.620333 184,166.03091 184,81.1630671 L184,33.1939773 C184,29.1179401 180.704825,25.8143103 176.64015,25.8143103 L146.518372,25.8143103 L146.518372,25.8143103 Z" id="Shape" fill="#DBB575"></path>
            <g id="Group" fill="#0E0F27">
                <path d="M92,19.0811094 C102.81562,29.2339883 120.669448,40.5743164 146.4461,40.5743164 L169.17676,40.5743164 L169.17676,81.1632617 C169.17676,114.051969 158.043095,142.801531 136.084652,166.611957 C120.042932,184.00698 102.161629,194.118063 92,198.307363 C81.8379548,194.118063 63.9570679,184.007398 47.9153484,166.611957 C25.956905,142.801531 14.8232398,114.051969 14.8232398,81.1632617 L14.8232398,40.5743164 L37.5539005,40.5743164 C63.330552,40.5743164 81.1843801,29.2335703 92,19.0811094 L92,19.0811094 Z M92,0 C90.4946968,0 88.9893937,0.647015625 87.923276,1.94188281 C80.8713303,10.5110781 64.504905,25.814168 37.5539005,25.814168 L7.47281448,25.814168 C3.41357466,25.814168 0.12280543,29.1186289 0.12280543,33.1938242 L0.12280543,81.1628437 C0.12280543,166.030562 68.1799095,206.619926 92,213.999582 C115.82009,206.619926 183.877195,166.030562 183.877195,81.1628437 L183.877195,33.1938242 C183.877195,29.1182109 180.586009,25.814168 176.527186,25.814168 L146.4461,25.814168 C119.495511,25.814168 103.12867,10.5110781 96.076724,1.94188281 C95.0110226,0.647433594 93.5053032,0 92,0 L92,0 Z" id="Shape"></path>
            </g>
            <path d="M92.8286197,200.728682 C92.3526952,200.728682 91.8763524,200.635463 91.4259387,200.452354 C85.5956537,198.070267 65.0840579,188.687994 45.8342059,167.993309 C23.1194724,143.58525 11.6036036,114.118795 11.6036036,80.4183528 L11.6036036,40.0052884 C11.6036036,37.9744394 13.2547022,36.3314492 15.2955738,36.3314492 L38.1328431,36.3314492 C63.1226465,36.3314492 80.2994247,25.2308614 90.3084779,15.9205836 C91.7220324,14.6001155 93.9356253,14.6001155 95.3491798,15.9205836 C105.358233,25.2308614 122.534593,36.3314492 147.524815,36.3314492 L170.362084,36.3314492 C172.402955,36.3314492 174.054054,37.9744394 174.054054,40.0052884 L174.054054,80.4183528 C174.054054,114.118795 162.538185,143.58525 139.823034,167.993309 C120.573182,188.687994 100.061586,198.069851 94.2313007,200.452354 C93.7800506,200.635463 93.3045443,200.728682 92.8286197,200.728682 Z M18.9875439,43.6795439 L18.9875439,80.418769 C18.9875439,112.210713 29.8434752,139.994642 51.2496251,162.999418 C68.1558206,181.171356 85.9674437,190.084203 92.8286197,193.065556 C99.6897958,190.084203 117.501419,181.172188 134.407614,162.999418 C155.813764,139.994226 166.669696,112.210296 166.669696,80.418769 L166.669696,43.6795439 L147.524396,43.6795439 C122.119727,43.6795439 104.074324,33.2102672 92.8286197,23.5445908 C81.5829155,33.2102672 63.537094,43.6795439 38.1328431,43.6795439 L18.9875439,43.6795439 L18.9875439,43.6795439 Z" id="Shape" fill="#FFFFFF"></path>
        </g>
    </g>
</svg>