<?xml version="1.0" encoding="UTF-8"?>
<svg width="239px" height="214px" viewBox="0 0 239 214" version="1.1" xmlns="http://www.w3.org/2000/svg" xmlns:xlink="http://www.w3.org/1999/xlink">
    <!-- Generator: Sketch 46.2 (44496) - http://www.bohemiancoding.com/sketch -->
    <title>diagram</title>
    <desc>Created with Sketch.</desc>
    <defs></defs>
    <g id="Page-1" stroke="none" stroke-width="1" fill="none" fill-rule="evenodd" opacity="0.100000001">
        <g id="diagram" fill-rule="nonzero">
            <rect id="Rectangle-path" fill="#0E0F27" x="115.230769" y="57.6153846" width="8.23076923" height="98.7692308"></rect>
            <polygon id="Shape" fill="#0E0F27" points="214 156.384615 205.769231 156.384615 205.769231 111.115385 32.9230769 111.115385 32.9230769 156.384615 24.6923077 156.384615 24.6923077 102.884615 214 102.884615"></polygon>
            <path d="M28.8076923,214 L28.8076923,214 C12.8976154,214 0,201.102385 0,185.192308 L0,185.192308 C0,169.282231 12.8976154,156.384615 28.8076923,156.384615 L28.8076923,156.384615 C44.7177692,156.384615 57.6153846,169.282231 57.6153846,185.192308 L57.6153846,185.192308 C57.6153846,201.102385 44.7177692,214 28.8076923,214 Z" id="Shape" fill="#DBB575"></path>
            <path d="M209.884615,214 L209.884615,214 C193.974538,214 181.076923,201.102385 181.076923,185.192308 L181.076923,185.192308 C181.076923,169.282231 193.974538,156.384615 209.884615,156.384615 L209.884615,156.384615 C225.794692,156.384615 238.692308,169.282231 238.692308,185.192308 L238.692308,185.192308 C238.692308,201.102385 225.794692,214 209.884615,214 Z" id="Shape" fill="#DBB575"></path>
            <path d="M119.346154,214 L119.346154,214 C103.436077,214 90.5384615,201.102385 90.5384615,185.192308 L90.5384615,185.192308 C90.5384615,169.282231 103.436077,156.384615 119.346154,156.384615 L119.346154,156.384615 C135.256231,156.384615 148.153846,169.282231 148.153846,185.192308 L148.153846,185.192308 C148.153846,201.102385 135.256231,214 119.346154,214 Z" id="Shape" fill="#DBB575"></path>
            <path d="M119.346154,57.6153846 L119.346154,57.6153846 C103.436077,57.6153846 90.5384615,44.7177692 90.5384615,28.8076923 L90.5384615,28.8076923 C90.5384615,12.8976154 103.436077,0 119.346154,0 L119.346154,0 C135.256231,0 148.153846,12.8976154 148.153846,28.8076923 L148.153846,28.8076923 C148.153846,44.7177692 135.256231,57.6153846 119.346154,57.6153846 Z" id="Shape" fill="#DBB575"></path>
        </g>
    </g>
</svg>