<?xml version="1.0" encoding="UTF-8"?>
<svg width="165px" height="214px" viewBox="0 0 165 214" version="1.1" xmlns="http://www.w3.org/2000/svg" xmlns:xlink="http://www.w3.org/1999/xlink">
    <!-- Generator: Sketch 46.2 (44496) - http://www.bohemiancoding.com/sketch -->
    <title>padlock</title>
    <desc>Created with Sketch.</desc>
    <defs></defs>
    <g id="Page-1" stroke="none" stroke-width="1" fill="none" fill-rule="evenodd" opacity="0.100000001">
        <g id="padlock" fill-rule="nonzero">
            <path d="M82.5,0 C51.4921822,0 26.2653061,25.1736222 26.2653061,56.1159827 L26.2653061,89.785489 L41.2612801,89.785489 L41.2612801,56.1159827 C41.2612801,33.3892117 59.7251514,14.9643176 82.5,14.9643176 C105.274849,14.9643176 123.73872,33.3892117 123.73872,56.1159827 L123.73872,89.785489 L138.734694,89.785489 L138.734694,56.1159827 C138.734694,25.1736222 113.507818,0 82.5,0 Z" id="Shape" fill="#DBB575"></path>
            <path d="M153.746783,208.599369 L11.253634,208.599369 C5.03983787,208.599369 0,203.768387 0,197.812743 L0,97.1967209 C0,91.2414953 5.03983787,86.4100946 11.253634,86.4100946 L153.742609,86.4100946 C159.960162,86.4100946 165,91.2410767 165,97.1967209 L165,197.809394 C165.000417,203.768387 159.96058,208.599369 153.746783,208.599369 Z" id="Shape" fill="#0E0F27"></path>
            <path d="M153.746394,214 L11.2536055,214 C5.03982511,214 0,209.010015 0,202.857685 L0,184.29653 L165,184.29653 L165,202.857272 C165,209.010015 159.960175,214 153.746394,214 Z" id="Shape" fill="#0E0F27"></path>
            <path d="M96.9795918,123.732835 C96.9795918,114.250944 88.3381217,106.815333 78.6150244,109.105726 C73.3627623,110.34304 69.0845005,114.634491 67.8028776,119.952641 C66.0915729,127.057464 69.3698554,133.50783 74.7553107,136.689675 L74.7553107,153.821562 C74.7553107,157.977767 78.0702935,161.343849 82.1634044,161.343849 L82.1634044,161.343849 C86.2565154,161.343849 89.5714981,157.977767 89.5714981,153.821562 L89.5714981,136.689675 C93.982953,134.083569 96.9795918,129.28798 96.9795918,123.732835 Z" id="Shape" fill="#DBB575"></path>
        </g>
    </g>
</svg>